<?xml version="1.0" encoding="UTF-8"?><svg id="Layer_2" xmlns="http://www.w3.org/2000/svg" viewBox="0 0 60.69 55.4"><defs><style>.cls-1{fill:#bf198d;stroke-width:0px;}</style></defs><g id="Layer_1-2"><path class="cls-1" d="M60.67,42.21c-.22-4.34-3.05-8.06-6.36-10.72-2.95-2.43-6.59-4.36-8.48-7.81-2.78-5.12-1.04-12.42-4.43-17.61-4.4-7.7-16.7-8.15-21.7-.83-3.37,4.41-2.24,10.84-3.91,15.78-2.05,7.27-11,9.08-14.29,15.44-4.36,7.62,1.38,18.43,10.16,18.8,6.76.77,12.24-4.97,18.84-4.91,5.72.27,10.39,4.89,16.18,5.03,7.23.64,14.35-5.58,13.99-12.97v-.18ZM52.99,45.99c-5.76,8.56-19.26-4.12-25.96-6.7-12.48-6.7-21.99,6.22-10.99,5.46,1.28.03,3.88-.6,4.13.7v.06c-.77,2.21-4.18,3.24-7.04,3.4-5.28.29-8.52-5.41-5.52-9.8,1.11-1.78,2.82-3.18,4.56-4.36,5-3.36,10.62-5.84,15.44-9.52,2.46-1.92,4.46-4.48,5.1-7.58.62-2.95.13-6.93-2.74-6.5-1.6.57-2.48,2.49-3.35,3.89-.62.91-1.48,3.02-2.46,2.12-.57-.61-.83-2.65-.37-4.81.75-5.04,6.18-8.27,10.4-4.92,6.88,6.04,1.29,22.1,5.07,30.58,1.11,2.78,3.39,5.45,6.35,6.14,1.57.44,3.55-.3,3.3-2.14-.1-2.1-2.61-4.55-2.52-6.47.63-1.12,2.66-.2,4.45,1.3,2.64,2.26,3.99,6.07,2.16,9.14Z"/><path class="cls-1" d="M60.67,42.21c-.22-4.34-3.05-8.06-6.36-10.72-2.95-2.43-6.59-4.36-8.48-7.81-2.78-5.12-1.04-12.42-4.43-17.61-4.4-7.7-16.7-8.15-21.7-.83-3.37,4.41-2.24,10.84-3.91,15.78-2.05,7.27-11,9.08-14.29,15.44-4.36,7.62,1.38,18.43,10.16,18.8,6.76.77,12.24-4.97,18.84-4.91,5.72.27,10.39,4.89,16.18,5.03,7.23.64,14.35-5.58,13.99-12.97v-.18ZM52.99,45.99c-5.76,8.56-19.26-4.12-25.96-6.7-12.48-6.7-21.99,6.22-10.99,5.46,1.28.03,3.88-.6,4.13.7v.06c-.77,2.21-4.18,3.24-7.04,3.4-5.28.29-8.52-5.41-5.52-9.8,1.11-1.78,2.82-3.18,4.56-4.36,5-3.36,10.62-5.84,15.44-9.52,2.46-1.92,4.46-4.48,5.1-7.58.62-2.95.13-6.93-2.74-6.5-1.6.57-2.48,2.49-3.35,3.89-.62.91-1.48,3.02-2.46,2.12-.57-.61-.83-2.65-.37-4.81.75-5.04,6.18-8.27,10.4-4.92,6.88,6.04,1.29,22.1,5.07,30.58,1.11,2.78,3.39,5.45,6.35,6.14,1.57.44,3.55-.3,3.3-2.14-.1-2.1-2.61-4.55-2.52-6.47.63-1.12,2.66-.2,4.45,1.3,2.64,2.26,3.99,6.07,2.16,9.14Z"/></g></svg>