<?xml version="1.0" encoding="UTF-8"?><svg id="Layer_2" xmlns="http://www.w3.org/2000/svg" viewBox="0 0 316.06 55.4"><defs><style>.cls-1{fill:#f4f4f4;stroke-width:0px;}</style></defs><g id="Layer_1-2"><path class="cls-1" d="M60.68,42.39c.35,7.39-6.76,13.6-13.99,12.97-5.79-.13-10.47-4.76-16.18-5.03-6.6-.07-12.08,5.67-18.84,4.91-8.78-.37-14.52-11.17-10.16-18.8,3.3-6.36,12.24-8.17,14.29-15.44,1.68-4.93.54-11.37,3.91-15.78,5-7.32,17.3-6.87,21.7.83,3.38,5.2,1.64,12.49,4.43,17.61,1.89,3.45,5.53,5.38,8.48,7.81,3.32,2.66,6.14,6.38,6.36,10.72v.18ZM20.18,45.44c-.25-1.3-2.85-.66-4.13-.7-11,.76-1.49-12.16,10.99-5.46,6.69,2.58,20.2,15.26,25.96,6.7,1.83-3.07.48-6.88-2.16-9.14-1.79-1.49-3.82-2.42-4.45-1.3-.09,1.91,2.42,4.36,2.52,6.47.24,1.84-1.73,2.58-3.3,2.14-2.96-.69-5.24-3.36-6.35-6.14-3.78-8.48,1.82-24.55-5.07-30.58-4.22-3.35-9.65-.12-10.4,4.92-.46,2.16-.19,4.2.37,4.81.99.9,1.84-1.21,2.46-2.12.87-1.4,1.75-3.32,3.35-3.89,2.88-.43,3.36,3.55,2.74,6.5-.64,3.09-2.64,5.66-5.1,7.58-4.82,3.68-10.44,6.16-15.44,9.52-1.74,1.18-3.45,2.58-4.56,4.36-3,4.39.25,10.08,5.52,9.8,2.86-.17,6.28-1.19,7.04-3.4v-.06Z"/><path class="cls-1" d="M74.84,36.38c-.44-.78-.75-1.5-.88-2.14l4.39-1.22c.03.17.07.41.48,1.22.58.99,1.77,2.24,4.05,2.24,2.48,0,4.01-1.12,4.01-3.03,0-1.8-.92-2.65-3.4-3.37l-2.82-.78c-4.35-1.22-6.26-3.47-6.26-7,0-4.39,3.37-7.14,8.36-7.14,6.15,0,8.19,3.98,8.57,5.13l.1.31-4.32,1.43c0-.17-.07-.34-.48-.99-.51-.82-1.67-1.84-3.71-1.84-2.21,0-3.54,1.02-3.54,2.82s.88,2.62,3.5,3.37l2.96.85c4.22,1.22,6.15,3.43,6.15,6.94,0,2.28-.82,4.08-2.48,5.41-1.63,1.33-3.81,1.97-6.56,1.97-3.77,0-6.49-1.39-8.13-4.18Z"/><path class="cls-1" d="M112.45,15.54h5.1v24.65h-5.1v-10.3h-10.16v10.3h-5.1V15.54h5.1v10.13h10.16v-10.13Z"/><path class="cls-1" d="M126.56,36.99c-2.28-2.38-3.43-5.44-3.43-9.15s1.16-6.66,3.47-9.08c2.35-2.41,5.27-3.6,8.77-3.6s6.49,1.19,8.77,3.57c2.28,2.35,3.43,5.41,3.43,9.11s-1.16,6.7-3.47,9.11c-2.31,2.41-5.24,3.6-8.74,3.6s-6.49-1.19-8.81-3.57ZM142.37,27.84c0-5.13-2.65-8.23-7-8.23s-7.04,3.2-7.04,8.23,2.65,8.23,7.04,8.23,6.97-3.2,7-8.23Z"/><path class="cls-1" d="M161.85,15.54c2.82,0,5.07.78,6.73,2.35,1.67,1.56,2.48,3.71,2.48,6.39s-.85,4.79-2.52,6.39c-1.67,1.56-3.91,2.35-6.73,2.35h-3.57v7.17h-5.1V15.54h8.7ZM161.81,28.59c2.58,0,4.01-1.6,4.01-4.32s-1.39-4.35-3.98-4.35h-3.6v8.67h3.57Z"/><path class="cls-1" d="M175.86,40.18V15.54h5.2v24.65h-5.2Z"/><path class="cls-1" d="M188.06,40.18V15.54h4.49l10.1,14.18,1.56,3.16h.17l-.44-3.13v-14.21h5.03v24.65h-4.49l-10.3-14.45-1.36-2.79h-.17l.44,2.79v14.45h-5.03Z"/><path class="cls-1" d="M231.96,40.18l-1.73-5.24h-10.13l-1.77,5.24h-5.34l9.14-24.65h6.05l9.18,24.65h-5.41ZM221.49,30.77h7.31l-3.09-9.18-.48-2.99h-.17l-.48,2.99-3.09,9.18Z"/><path class="cls-1" d="M255.35,15.54v4.42h-7.45v20.23h-5.13v-20.23h-7.41v-4.42h19.99Z"/><path class="cls-1" d="M259.5,40.18V15.54h5.2v24.65h-5.2Z"/><path class="cls-1" d="M305.01,35.93h11.05v4.25h-16.15V15.54h15.67v4.22h-10.57v6.05h9.21v3.94h-9.21v6.19Z"/><path class="cls-1" d="M271.7,16.09c6.72,3.86,7.57,11.08,9.76,17.88,2.15-5.09,4.14-9.8,6.36-15.05-1.22,1.1-2.13,1.93-3.04,2.75.14-4.66,1.6-5.79,8.82-6.84.92,4.68-.41,7.04-4.42,8.81-1.28.56-2.67,1.86-3.11,3.13-1.48,4.3-2.56,8.74-4.74,13.49-.5-1.27-1.16-2.5-1.49-3.82-1.74-7.14-3.38-14.3-8.14-20.35Z"/></g></svg>